<?xml version="1.0" encoding="UTF-8" standalone="no"?>
<!-- Uploaded to: SVG Repo, www.svgrepo.com, Generator: SVG Repo Mixer Tools -->

<svg
   width="800px"
   height="800px"
   viewBox="0 0 24 24"
   fill="none"
   version="1.1"
   id="svg73"
   sodipodi:docname="icon.svg"
   inkscape:export-filename="/home/harun/Downloads/shield-user-svgrepo-com.png"
   inkscape:export-xdpi="61.439999"
   inkscape:export-ydpi="61.439999"
   inkscape:version="1.1.2 (0a00cf5339, 2022-02-04)"
   xmlns:inkscape="http://www.inkscape.org/namespaces/inkscape"
   xmlns:sodipodi="http://sodipodi.sourceforge.net/DTD/sodipodi-0.dtd"
   xmlns="http://www.w3.org/2000/svg"
   xmlns:svg="http://www.w3.org/2000/svg">
  <defs
     id="defs77" />
  <sodipodi:namedview
     id="namedview75"
     pagecolor="#ffffff"
     bordercolor="#666666"
     borderopacity="1.0"
     inkscape:pageshadow="2"
     inkscape:pageopacity="0.0"
     inkscape:pagecheckerboard="0"
     showgrid="false"
     inkscape:zoom="0.70710678"
     inkscape:cx="407.2935"
     inkscape:cy="441.94174"
     inkscape:window-width="1264"
     inkscape:window-height="970"
     inkscape:window-x="2515"
     inkscape:window-y="18"
     inkscape:window-maximized="0"
     inkscape:current-layer="svg73" />
  <path
     opacity="0.5"
     d="m 1.2000002,10.100033 c 0,-3.8371486 0,-5.7556966 0.453024,-6.4011405 0.4530115,-0.6454442 2.2569611,-1.262941 5.8648685,-2.497944 L 8.2052646,0.96566415 C 10.086001,0.32188825 11.026321,2.45e-7 12,2.45e-7 c 0.973679,0 1.913999,0.321888005 3.794765,0.965663905 L 16.482117,1.2009485 C 20.090036,2.4359515 21.894002,3.0534483 22.347,3.6988925 22.8,4.3443364 22.8,6.2628844 22.8,10.100033 v 1.889646 c 0,6.765605 -5.086798,10.048922 -8.278314,11.443086 C 13.656,23.810882 13.22316,24 12,24 10.77684,24 10.344,23.810882 9.4782721,23.432765 6.2867526,22.038601 1.2000001,18.755284 1.2000001,11.989679 Z"
     fill="#1C274C"
     id="path67"
     style="opacity:1;fill:#88c0d0;fill-opacity:1;stroke-width:1.2"
     inkscape:export-filename="/home/harun/Downloads/path67.png"
     inkscape:export-xdpi="61.439999"
     inkscape:export-ydpi="61.439999" />
  <g
     id="g1328"
     transform="matrix(4.1083099,0,0,4.1083099,-42.898217,-16.121842)"
     style="stroke-width:1;stroke-miterlimit:4;stroke-dasharray:none">
    <path
       style="display:inline;fill:#2e3440;fill-opacity:1;stroke-width:1;stroke-miterlimit:4;stroke-dasharray:none"
       d="m 14.546647,6.859927 c 0.223986,0.0085 0.448971,0.005 0.673456,0.01 0.05616,0.00378 0.111969,0.011632 0.166989,0.0235 -0.05041,0.077014 -0.10728,0.1496042 -0.169988,0.216986 -0.08,0.075 -0.170489,0.147991 -0.286482,0.0345 -0.0275,-0.0275 -0.09349,-0.021 -0.14149,-0.022 -0.223486,-0.0025 -0.446971,-0.01 -0.669957,-0.0015 -0.193459,0.00622 -0.386248,0.025939 -0.576962,0.059 -0.036,0.0065 -0.08899,0.124991 -0.073,0.168989 0.039,0.103493 0.09549,0.217485 0.179488,0.283481 1.375987,0.8578526 0.773221,0.6257503 -0.486863,0.6608373 -0.0395,-0.0325 -0.864539,-0.3018703 -0.960537,-0.2953663 -0.114993,0.008 -0.407474,0.024 -0.533465,-0.009 0.101993,-0.0775 0.379975,-0.189988 0.499967,-0.279982 -0.362976,-0.244981 -0.776949,-0.156987 -1.157424,-0.229982 0.08799,-0.163989 0.522965,-0.415473 0.770449,-0.443971 -0.01468,-0.1381606 -0.03721,-0.2753735 -0.06749,-0.410973 -0.015,-0.0555 -0.077,-0.109993 -0.131491,-0.141491 -0.130997,-0.077 -0.270487,-0.140491 -0.421478,-0.216986 0.135284,-0.087344 0.291996,-0.1357759 0.452971,-0.13999 0.152615,-0.00588 0.305325,0.00892 0.45397,0.044 0.269982,0.0615 0.484968,0.021 0.699454,-0.16199 C 12.597775,5.939987 12.428786,5.877991 12.265297,5.804496 12.103981,5.73088 11.946762,5.6485983 11.794327,5.558012 c 0.424973,0.059 0.835446,0.218485 1.269917,0.159989 l 0.011,-0.059 -1.008934,-0.234984 c 0.601461,-0.055 1.161424,-0.064 1.69189,0.193987 0.14949,0.07299 0.30498,0.132991 0.44847,0.215986 0.07,0.04 0.116493,0.119992 0.173989,0.182488 0.045,0.049 0.08199,0.114992 0.137991,0.14499 0.211986,0.112493 0.444971,0.116993 0.682955,0.111493 l 0.005,-0.08 c 0.239485,0.07499 0.508467,0.350977 0.508467,0.552464 -0.387975,0 -0.774949,-0.0015 -1.162424,0.002 -0.0415,0 -0.08249,0.0305 -0.123492,0.047 0.039,0.023 0.0775,0.064 0.117492,0.0655 z"
       id="path974"
       sodipodi:nodetypes="scccccccccccccccccccccccccccccccccccss"
       inkscape:export-filename="/home/harun/Downloads/path974.png"
       inkscape:export-xdpi="10.375964"
       inkscape:export-ydpi="10.375964" />
    <path
       style="display:inline;fill:#bf616a;fill-opacity:1;stroke-width:1;stroke-miterlimit:4;stroke-dasharray:none"
       d="m 14.04668,6.286464 a 0.05899614,0.05899614 0 0 0 -0.008,0.09499 0.08949414,0.08949414 0 0 0 0.122992,0.0325 c 0.0375,-0.019 0.074,-0.039 0.118992,-0.0625 -0.036,-0.031 -0.065,-0.057 -0.09499,-0.0815 -0.053,-0.0435 -0.09649,-0.016 -0.138991,0.0165 z"
       id="path976" />
  </g>
</svg>
